<?xml version="1.0" encoding="us-ascii" standalone="no"?><svg xmlns="http://www.w3.org/2000/svg" xmlns:xlink="http://www.w3.org/1999/xlink" contentStyleType="text/css" height="920px" preserveAspectRatio="none" style="width:1752px;height:920px;background:#FFFFFF;" version="1.1" viewBox="0 0 1752 920" width="1752px" zoomAndPan="magnify"><defs/><g><text fill="#000000" font-family="sans-serif" font-size="14" font-weight="bold" lengthAdjust="spacing" textLength="374" x="682" y="24.9659">Gold &#8212; une table par indicateur, cloisonn&#233;e par usage</text><!--cluster Pilotage hospitalier\nacc?s : pilotage_user--><g id="cluster_Pilotage hospitalier\nacc&#232;s : pilotage_user"><path d="M8.5,46.6699 L151.5,46.6699 A3.75,3.75 0 0 1 154,49.1699 L161,90.8057 L790.5,90.8057 A2.5,2.5 0 0 1 793,93.3057 L793,593.1699 A2.5,2.5 0 0 1 790.5,595.6699 L8.5,595.6699 A2.5,2.5 0 0 1 6,593.1699 L6,49.1699 A2.5,2.5 0 0 1 8.5,46.6699 " fill="#E8F4F8" style="stroke:#000000;stroke-width:1.5;"/><line style="stroke:#000000;stroke-width:1.5;" x1="6" x2="161" y1="90.8057" y2="90.8057"/><text fill="#000000" font-family="sans-serif" font-size="14" font-weight="bold" lengthAdjust="spacing" textLength="135" x="13.5" y="63.6358">Pilotage hospitalier</text><text fill="#000000" font-family="sans-serif" font-size="14" font-weight="bold" lengthAdjust="spacing" textLength="142" x="10" y="82.7038">acc&#232;s : pilotage_user</text></g><!--cluster Recherche clinique\nacc?s : recherche_user--><g id="cluster_Recherche clinique\nacc&#232;s : recherche_user"><path d="M1262.5,350.6699 L1416.5,350.6699 A3.75,3.75 0 0 1 1419,353.1699 L1426,394.8057 L1742.5,394.8057 A2.5,2.5 0 0 1 1745,397.3057 L1745,813.1699 A2.5,2.5 0 0 1 1742.5,815.6699 L1262.5,815.6699 A2.5,2.5 0 0 1 1260,813.1699 L1260,353.1699 A2.5,2.5 0 0 1 1262.5,350.6699 " fill="#FFF4E0" style="stroke:#000000;stroke-width:1.5;"/><line style="stroke:#000000;stroke-width:1.5;" x1="1260" x2="1426" y1="394.8057" y2="394.8057"/><text fill="#000000" font-family="sans-serif" font-size="14" font-weight="bold" lengthAdjust="spacing" textLength="129" x="1276" y="367.6358">Recherche clinique</text><text fill="#000000" font-family="sans-serif" font-size="14" font-weight="bold" lengthAdjust="spacing" textLength="153" x="1264" y="386.7038">acc&#232;s : recherche_user</text></g><!--class dms_par_service--><g id="elem_dms_par_service"><rect codeLine="12" fill="#F1F1F1" height="162.4075" id="dms_par_service" rx="2.5" ry="2.5" style="stroke:#181818;stroke-width:0.5;" width="208" x="312" y="103.6699"/><ellipse cx="356.25" cy="119.6699" fill="#ADD1B2" rx="11" ry="11" style="stroke:#181818;stroke-width:1.0;"/><path d="M360.3594,125.6699 L352.6406,125.6699 L352.6406,113.2793 L360.3594,113.2793 L360.3594,115.4355 L355.0938,115.4355 L355.0938,118.1074 L359.8594,118.1074 L359.8594,120.2636 L355.0938,120.2636 L355.0938,123.5136 L360.3594,123.5136 L360.3594,125.6699 Z " fill="#000000"/><text fill="#000000" font-family="sans-serif" font-size="14" lengthAdjust="spacing" textLength="111" x="376.75" y="125.1019">dms_par_service</text><line style="stroke:#181818;stroke-width:0.5;" x1="313" x2="519" y1="135.6699" y2="135.6699"/><ellipse cx="323" cy="150.7039" fill="#000000" rx="3" ry="3" style="stroke:#000000;stroke-width:1.0;"/><text fill="#000000" font-family="sans-serif" font-size="14" lengthAdjust="spacing" textLength="138" x="332" y="154.6358">service_code : String</text><ellipse cx="323" cy="169.7718" fill="#000000" rx="3" ry="3" style="stroke:#000000;stroke-width:1.0;"/><text fill="#000000" font-family="sans-serif" font-size="14" lengthAdjust="spacing" textLength="75" x="332" y="173.7038">mois : Date</text><line style="stroke:#181818;stroke-width:1.0;" x1="313" x2="519" y1="181.8057" y2="181.8057"/><text fill="#000000" font-family="sans-serif" font-size="14" lengthAdjust="spacing" textLength="139" x="318" y="200.7717">service_label : String</text><text fill="#000000" font-family="sans-serif" font-size="14" lengthAdjust="spacing" textLength="196" x="318" y="219.8396">nb_sejours_termines : UInt32</text><text fill="#000000" font-family="sans-serif" font-size="14" lengthAdjust="spacing" textLength="196" x="318" y="238.9075">nb_sejours_en_cours : UInt32</text><text fill="#000000" font-family="sans-serif" font-size="14" lengthAdjust="spacing" textLength="129" x="318" y="257.9754">dms_jours : Float64</text></g><!--class urgences_par_jour--><g id="elem_urgences_par_jour"><rect codeLine="22" fill="#F1F1F1" height="86.1358" id="urgences_par_jour" rx="2.5" ry="2.5" style="stroke:#181818;stroke-width:0.5;" width="157" x="555.5" y="141.6699"/><ellipse cx="570.5" cy="157.6699" fill="#ADD1B2" rx="11" ry="11" style="stroke:#181818;stroke-width:1.0;"/><path d="M574.6094,163.6699 L566.8906,163.6699 L566.8906,151.2793 L574.6094,151.2793 L574.6094,153.4355 L569.3438,153.4355 L569.3438,156.1074 L574.1094,156.1074 L574.1094,158.2636 L569.3438,158.2636 L569.3438,161.5136 L574.6094,161.5136 L574.6094,163.6699 Z " fill="#000000"/><text fill="#000000" font-family="sans-serif" font-size="14" lengthAdjust="spacing" textLength="125" x="584.5" y="163.1019">urgences_par_jour</text><line style="stroke:#181818;stroke-width:0.5;" x1="556.5" x2="711.5" y1="173.6699" y2="173.6699"/><ellipse cx="566.5" cy="188.7039" fill="#000000" rx="3" ry="3" style="stroke:#000000;stroke-width:1.0;"/><text fill="#000000" font-family="sans-serif" font-size="14" lengthAdjust="spacing" textLength="70" x="575.5" y="192.6358">jour : Date</text><line style="stroke:#181818;stroke-width:1.0;" x1="556.5" x2="711.5" y1="200.7378" y2="200.7378"/><text fill="#000000" font-family="sans-serif" font-size="14" lengthAdjust="spacing" textLength="144" x="561.5" y="219.7038">nb_passages : UInt32</text></g><!--class readmission_par_service--><g id="elem_readmission_par_service"><rect codeLine="28" fill="#F1F1F1" height="162.4075" id="readmission_par_service" rx="2.5" ry="2.5" style="stroke:#181818;stroke-width:0.5;" width="217" x="307.5" y="388.6699"/><ellipse cx="331.5" cy="404.6699" fill="#ADD1B2" rx="11" ry="11" style="stroke:#181818;stroke-width:1.0;"/><path d="M335.6094,410.6699 L327.8906,410.6699 L327.8906,398.2793 L335.6094,398.2793 L335.6094,400.4355 L330.3438,400.4355 L330.3438,403.1074 L335.1094,403.1074 L335.1094,405.2636 L330.3438,405.2636 L330.3438,408.5136 L335.6094,408.5136 L335.6094,410.6699 Z " fill="#000000"/><text fill="#000000" font-family="sans-serif" font-size="14" lengthAdjust="spacing" textLength="165" x="347.5" y="410.1019">readmission_par_service</text><line style="stroke:#181818;stroke-width:0.5;" x1="308.5" x2="523.5" y1="420.6699" y2="420.6699"/><ellipse cx="318.5" cy="435.7039" fill="#000000" rx="3" ry="3" style="stroke:#000000;stroke-width:1.0;"/><text fill="#000000" font-family="sans-serif" font-size="14" lengthAdjust="spacing" textLength="138" x="327.5" y="439.6358">service_code : String</text><ellipse cx="318.5" cy="454.7718" fill="#000000" rx="3" ry="3" style="stroke:#000000;stroke-width:1.0;"/><text fill="#000000" font-family="sans-serif" font-size="14" lengthAdjust="spacing" textLength="75" x="327.5" y="458.7038">mois : Date</text><line style="stroke:#181818;stroke-width:1.0;" x1="308.5" x2="523.5" y1="466.8057" y2="466.8057"/><text fill="#000000" font-family="sans-serif" font-size="14" lengthAdjust="spacing" textLength="139" x="313.5" y="485.7717">service_label : String</text><text fill="#000000" font-family="sans-serif" font-size="14" lengthAdjust="spacing" textLength="130" x="313.5" y="504.8396">nb_sejours : UInt32</text><text fill="#000000" font-family="sans-serif" font-size="14" lengthAdjust="spacing" textLength="171" x="313.5" y="523.9075">nb_readmissions : UInt32</text><text fill="#000000" font-family="sans-serif" font-size="14" lengthAdjust="spacing" textLength="205" x="313.5" y="542.9754">taux_readmission_pct : Float64</text></g><!--class alertes_par_jour--><g id="elem_alertes_par_jour"><rect codeLine="38" fill="#F1F1F1" height="219.6113" id="alertes_par_jour" rx="2.5" ry="2.5" style="stroke:#181818;stroke-width:0.5;" width="217" x="559.5" y="359.6699"/><ellipse cx="609.75" cy="375.6699" fill="#ADD1B2" rx="11" ry="11" style="stroke:#181818;stroke-width:1.0;"/><path d="M613.8594,381.6699 L606.1406,381.6699 L606.1406,369.2793 L613.8594,369.2793 L613.8594,371.4355 L608.5938,371.4355 L608.5938,374.1074 L613.3594,374.1074 L613.3594,376.2636 L608.5938,376.2636 L608.5938,379.5136 L613.8594,379.5136 L613.8594,381.6699 Z " fill="#000000"/><text fill="#000000" font-family="sans-serif" font-size="14" lengthAdjust="spacing" textLength="108" x="630.25" y="381.1019">alertes_par_jour</text><line style="stroke:#181818;stroke-width:0.5;" x1="560.5" x2="775.5" y1="391.6699" y2="391.6699"/><ellipse cx="570.5" cy="406.7039" fill="#000000" rx="3" ry="3" style="stroke:#000000;stroke-width:1.0;"/><text fill="#000000" font-family="sans-serif" font-size="14" lengthAdjust="spacing" textLength="70" x="579.5" y="410.6358">jour : Date</text><ellipse cx="570.5" cy="425.7718" fill="#000000" rx="3" ry="3" style="stroke:#000000;stroke-width:1.0;"/><text fill="#000000" font-family="sans-serif" font-size="14" lengthAdjust="spacing" textLength="138" x="579.5" y="429.7038">service_code : String</text><line style="stroke:#181818;stroke-width:1.0;" x1="560.5" x2="775.5" y1="437.8057" y2="437.8057"/><text fill="#000000" font-family="sans-serif" font-size="14" lengthAdjust="spacing" textLength="139" x="565.5" y="456.7717">service_label : String</text><text fill="#000000" font-family="sans-serif" font-size="14" lengthAdjust="spacing" textLength="129" x="565.5" y="475.8396">nb_releves : UInt32</text><text fill="#000000" font-family="sans-serif" font-size="14" lengthAdjust="spacing" textLength="145" x="565.5" y="494.9075">nb_alertes_fc : UInt32</text><text fill="#000000" font-family="sans-serif" font-size="14" lengthAdjust="spacing" textLength="165" x="565.5" y="513.9754">nb_alertes_spo2 : UInt32</text><text fill="#000000" font-family="sans-serif" font-size="14" lengthAdjust="spacing" textLength="168" x="565.5" y="533.0433">nb_alertes_temp : UInt32</text><text fill="#000000" font-family="sans-serif" font-size="14" lengthAdjust="spacing" textLength="163" x="565.5" y="552.1113">nb_alertes_total : UInt32</text><text fill="#000000" font-family="sans-serif" font-size="14" lengthAdjust="spacing" textLength="205" x="565.5" y="571.1792">nb_sejours_concernes : UInt32</text></g><!--class admissions_par_age--><g id="elem_admissions_par_age"><rect codeLine="51" fill="#F1F1F1" height="105.2038" id="admissions_par_age" rx="2.5" ry="2.5" style="stroke:#181818;stroke-width:0.5;" width="242" x="26" y="132.1699"/><ellipse cx="74.75" cy="148.1699" fill="#ADD1B2" rx="11" ry="11" style="stroke:#181818;stroke-width:1.0;"/><path d="M78.8594,154.1699 L71.1406,154.1699 L71.1406,141.7793 L78.8594,141.7793 L78.8594,143.9355 L73.5938,143.9355 L73.5938,146.6074 L78.3594,146.6074 L78.3594,148.7636 L73.5938,148.7636 L73.5938,152.0136 L78.8594,152.0136 L78.8594,154.1699 Z " fill="#000000"/><text fill="#000000" font-family="sans-serif" font-size="14" lengthAdjust="spacing" textLength="136" x="95.25" y="153.6019">admissions_par_age</text><line style="stroke:#181818;stroke-width:0.5;" x1="27" x2="267" y1="164.1699" y2="164.1699"/><ellipse cx="37" cy="179.2039" fill="#000000" rx="3" ry="3" style="stroke:#000000;stroke-width:1.0;"/><text fill="#000000" font-family="sans-serif" font-size="14" lengthAdjust="spacing" textLength="125" x="46" y="183.1358">age_group : String</text><text fill="#000000" font-family="sans-serif" font-size="14" font-style="italic" lengthAdjust="spacing" textLength="83" x="179" y="183.1358">a l'admission</text><line style="stroke:#181818;stroke-width:1.0;" x1="27" x2="267" y1="191.2378" y2="191.2378"/><text fill="#000000" font-family="sans-serif" font-size="14" lengthAdjust="spacing" textLength="157" x="32" y="210.2038">nb_admissions : UInt32</text><text fill="#000000" font-family="sans-serif" font-size="14" lengthAdjust="spacing" textLength="136" x="32" y="229.2717">nb_patients : UInt32</text></g><g id="elem_GMN8"><path d="M22,411.6699 L22,527.906 A0,0 0 0 0 22,527.906 L272,527.906 A0,0 0 0 0 272,527.906 L272,421.6699 L262,411.6699 L151,411.6699 L147,237.2499 L143,411.6699 L22,411.6699 A0,0 0 0 0 22,411.6699 " fill="#FEFFDD" style="stroke:#181818;stroke-width:0.5;"/><path d="M262,411.6699 L262,421.6699 L272,421.6699 L262,411.6699 " fill="#FEFFDD" style="stroke:#181818;stroke-width:0.5;"/><text fill="#000000" font-family="sans-serif" font-size="13" lengthAdjust="spacing" textLength="229" x="28" y="430.5669">Tranche calculee a la date d'admission,</text><text fill="#000000" font-family="sans-serif" font-size="13" lengthAdjust="spacing" textLength="200" x="28" y="448.2729">pas a la date du calcul : un patient</text><text fill="#000000" font-family="sans-serif" font-size="13" lengthAdjust="spacing" textLength="209" x="28" y="465.9789">hospitalise a 17 puis 19 ans compte</text><text fill="#000000" font-family="sans-serif" font-size="13" lengthAdjust="spacing" textLength="209" x="28" y="483.685">dans deux tranches. La somme des</text><text fill="#000000" font-family="sans-serif" font-size="13" lengthAdjust="spacing" textLength="205" x="28" y="501.391">nb_patients peut donc depasser le</text><text fill="#000000" font-family="sans-serif" font-size="13" lengthAdjust="spacing" textLength="174" x="28" y="519.097">nombre de patients distincts.</text></g><!--class prevalence_pathologie--><g id="elem_prevalence_pathologie"><rect codeLine="70" fill="#F1F1F1" height="124.2717" id="prevalence_pathologie" rx="2.5" ry="2.5" style="stroke:#181818;stroke-width:0.5;" width="184" x="1545" y="407.6699"/><ellipse cx="1560" cy="423.6699" fill="#ADD1B2" rx="11" ry="11" style="stroke:#181818;stroke-width:1.0;"/><path d="M1564.1094,429.6699 L1556.3906,429.6699 L1556.3906,417.2793 L1564.1094,417.2793 L1564.1094,419.4355 L1558.8438,419.4355 L1558.8438,422.1074 L1563.6094,422.1074 L1563.6094,424.2636 L1558.8438,424.2636 L1558.8438,427.5136 L1564.1094,427.5136 L1564.1094,429.6699 Z " fill="#000000"/><text fill="#000000" font-family="sans-serif" font-size="14" lengthAdjust="spacing" textLength="152" x="1574" y="429.1019">prevalence_pathologie</text><line style="stroke:#181818;stroke-width:0.5;" x1="1546" x2="1728" y1="439.6699" y2="439.6699"/><ellipse cx="1556" cy="454.7039" fill="#000000" rx="3" ry="3" style="stroke:#000000;stroke-width:1.0;"/><text fill="#000000" font-family="sans-serif" font-size="14" lengthAdjust="spacing" textLength="131" x="1565" y="458.6358">code_cim10 : String</text><line style="stroke:#181818;stroke-width:1.0;" x1="1546" x2="1728" y1="466.7378" y2="466.7378"/><text fill="#000000" font-family="sans-serif" font-size="14" lengthAdjust="spacing" textLength="125" x="1551" y="485.7038">pathologie : String</text><text fill="#000000" font-family="sans-serif" font-size="14" lengthAdjust="spacing" textLength="147" x="1551" y="504.7717">taille_cohorte : UInt64</text><text fill="#000000" font-family="sans-serif" font-size="14" lengthAdjust="spacing" textLength="130" x="1551" y="523.8396">nb_sejours : UInt32</text></g><!--class cohorte_age_sexe--><g id="elem_cohorte_age_sexe"><rect codeLine="78" fill="#F1F1F1" height="105.2038" id="cohorte_age_sexe" rx="2.5" ry="2.5" style="stroke:#181818;stroke-width:0.5;" width="234" x="1276" y="417.1699"/><ellipse cx="1329.75" cy="433.1699" fill="#ADD1B2" rx="11" ry="11" style="stroke:#181818;stroke-width:1.0;"/><path d="M1333.8594,439.1699 L1326.1406,439.1699 L1326.1406,426.7793 L1333.8594,426.7793 L1333.8594,428.9355 L1328.5938,428.9355 L1328.5938,431.6074 L1333.3594,431.6074 L1333.3594,433.7636 L1328.5938,433.7636 L1328.5938,437.0136 L1333.8594,437.0136 L1333.8594,439.1699 Z " fill="#000000"/><text fill="#000000" font-family="sans-serif" font-size="14" lengthAdjust="spacing" textLength="118" x="1350.25" y="438.6019">cohorte_age_sexe</text><line style="stroke:#181818;stroke-width:0.5;" x1="1277" x2="1509" y1="449.1699" y2="449.1699"/><ellipse cx="1287" cy="464.2039" fill="#000000" rx="3" ry="3" style="stroke:#000000;stroke-width:1.0;"/><text fill="#000000" font-family="sans-serif" font-size="14" lengthAdjust="spacing" textLength="125" x="1296" y="468.1358">age_group : String</text><text fill="#000000" font-family="sans-serif" font-size="14" font-style="italic" lengthAdjust="spacing" textLength="75" x="1429" y="468.1358">a l'inclusion</text><ellipse cx="1287" cy="483.2718" fill="#000000" rx="3" ry="3" style="stroke:#000000;stroke-width:1.0;"/><text fill="#000000" font-family="sans-serif" font-size="14" lengthAdjust="spacing" textLength="75" x="1296" y="487.2038">sex : String</text><line style="stroke:#181818;stroke-width:1.0;" x1="1277" x2="1509" y1="495.3057" y2="495.3057"/><text fill="#000000" font-family="sans-serif" font-size="14" lengthAdjust="spacing" textLength="147" x="1282" y="514.2717">taille_cohorte : UInt64</text></g><g id="elem_GMN14"><path d="M1276.5,639.6699 L1276.5,799.318 A0,0 0 0 0 1276.5,799.318 L1547.5,799.318 A0,0 0 0 0 1547.5,799.318 L1547.5,649.6699 L1537.5,639.6699 L1409.91,639.6699 L1396.96,522.3599 L1401.91,639.6699 L1276.5,639.6699 A0,0 0 0 0 1276.5,639.6699 " fill="#FEFFDD" style="stroke:#181818;stroke-width:0.5;"/><path d="M1537.5,639.6699 L1537.5,649.6699 L1547.5,649.6699 L1537.5,639.6699 " fill="#FEFFDD" style="stroke:#181818;stroke-width:0.5;"/><text fill="#000000" font-family="sans-serif" font-size="13" lengthAdjust="spacing" textLength="207" x="1282.5" y="658.5669">Age A L'INCLUSION = a la premiere</text><text fill="#000000" font-family="sans-serif" font-size="13" lengthAdjust="spacing" textLength="250" x="1282.5" y="676.2729">admission connue du patient. Convention</text><text fill="#000000" font-family="sans-serif" font-size="13" lengthAdjust="spacing" textLength="191" x="1282.5" y="693.9789">de la recherche clinique, et seule</text><text fill="#000000" font-family="sans-serif" font-size="13" lengthAdjust="spacing" textLength="204" x="1282.5" y="711.685">definition qui ne derive pas avec le</text><text fill="#000000" font-family="sans-serif" font-size="13" lengthAdjust="spacing" textLength="41" x="1282.5" y="729.391">temps.</text><line style="stroke:#181818;stroke-width:1.0;" x1="1277.5" x2="1546.5" y1="733.2" y2="733.2"/><text fill="#000000" font-family="sans-serif" font-size="13" lengthAdjust="spacing" textLength="231" x="1282.5" y="751.097">Perimetre : les patients ayant au moins</text><text fill="#000000" font-family="sans-serif" font-size="13" lengthAdjust="spacing" textLength="234" x="1282.5" y="768.803">un sejour (5 358), et non l'ensemble des</text><text fill="#000000" font-family="sans-serif" font-size="13" lengthAdjust="spacing" textLength="177" x="1282.5" y="786.509">patients du referentiel (6 000).</text></g><g id="elem_N_source"><path d="M808.5,69.6699 L808.5,300.1421 L1225.5,300.1421 L1225.5,79.6699 L1215.5,69.6699 L808.5,69.6699 " fill="#FEFFDD" style="stroke:#181818;stroke-width:0.5;"/><path d="M1215.5,69.6699 L1215.5,79.6699 L1225.5,79.6699 L1215.5,69.6699 " fill="#FEFFDD" style="stroke:#181818;stroke-width:1.0;"/><text fill="#000000" font-family="sans-serif" font-size="13" font-weight="bold" lengthAdjust="spacing" textLength="88" x="814.5" y="88.5669">Alimentation</text><text fill="#000000" font-family="sans-serif" font-size="13" lengthAdjust="spacing" textLength="331" x="814.5" y="106.2729">dms_par_service          &lt;- silver.fact_sejours + dim_service</text><text fill="#000000" font-family="sans-serif" font-size="13" lengthAdjust="spacing" textLength="254" x="814.5" y="123.9789">urgences_par_jour        &lt;- silver.fact_sejours</text><text fill="#000000" font-family="sans-serif" font-size="13" lengthAdjust="spacing" textLength="354" x="814.5" y="141.685">readmission_par_service  &lt;- silver.fact_sejours + dim_service</text><text fill="#000000" font-family="sans-serif" font-size="13" lengthAdjust="spacing" textLength="350" x="814.5" y="159.391">alertes_par_jour         &lt;- silver.fact_monitoring + dim_service</text><text fill="#000000" font-family="sans-serif" font-size="13" lengthAdjust="spacing" textLength="379" x="814.5" y="177.097">admissions_par_age       &lt;- silver.fact_sejours (age_at_admission)</text><text fill="#000000" font-family="sans-serif" font-size="13" lengthAdjust="spacing" textLength="369" x="814.5" y="194.803">prevalence_pathologie    &lt;- silver.fact_diagnostics + dim_cim10</text><text fill="#000000" font-family="sans-serif" font-size="13" lengthAdjust="spacing" textLength="396" x="814.5" y="212.509">cohorte_age_sexe         &lt;- silver.fact_sejours (age a la 1re admission)</text><text fill="#000000" font-family="sans-serif" font-size="13" lengthAdjust="spacing" textLength="120" x="898.5" y="230.215">+ dim_patient (sexe)</text><line style="stroke:#181818;stroke-width:1.0;" x1="809.5" x2="1224.5" y1="234.024" y2="234.024"/><text fill="#000000" font-family="sans-serif" font-size="13" lengthAdjust="spacing" textLength="316" x="814.5" y="251.9211">Recalcul complet &#224; chaque cycle (un agr&#233;gat mensuel</text><text fill="#000000" font-family="sans-serif" font-size="13" lengthAdjust="spacing" textLength="299" x="814.5" y="269.6271">change d&#232;s qu'un jour du mois arrive), mais seules</text><text fill="#000000" font-family="sans-serif" font-size="13" lengthAdjust="spacing" textLength="283" x="814.5" y="287.3331">les lignes dont la valeur a chang&#233; sont r&#233;&#233;crites.</text></g><g id="elem_N_rgpd"><path d="M1260.5,78.1699 L1260.5,290.9361 A0,0 0 0 0 1260.5,290.9361 L1389,290.9361 L1393,416.8899 L1397,290.9361 L1525.5,290.9361 A0,0 0 0 0 1525.5,290.9361 L1525.5,88.1699 L1515.5,78.1699 L1260.5,78.1699 A0,0 0 0 0 1260.5,78.1699 " fill="#FEFFDD" style="stroke:#181818;stroke-width:0.5;"/><path d="M1515.5,78.1699 L1515.5,88.1699 L1525.5,88.1699 L1515.5,78.1699 " fill="#FEFFDD" style="stroke:#181818;stroke-width:0.5;"/><text fill="#000000" font-family="sans-serif" font-size="13" font-weight="bold" lengthAdjust="spacing" textLength="139" x="1266.5" y="97.0669">Cloisonnement RGPD</text><text fill="#000000" font-family="sans-serif" font-size="13" lengthAdjust="spacing" textLength="223" x="1266.5" y="114.7729">Deux r&#244;les, deux p&#233;rim&#232;tres disjoints.</text><text fill="#000000" font-family="sans-serif" font-size="13" lengthAdjust="spacing" textLength="219" x="1266.5" y="132.4789">Aucun des deux n'acc&#232;de &#224; silver : les</text><text fill="#000000" font-family="sans-serif" font-size="13" lengthAdjust="spacing" textLength="239" x="1266.5" y="150.185">dashboards ne voient que des agr&#233;gats,</text><text fill="#000000" font-family="sans-serif" font-size="13" lengthAdjust="spacing" textLength="134" x="1266.5" y="167.891">jamais le grain patient.</text><line style="stroke:#181818;stroke-width:1.0;" x1="1261.5" x2="1524.5" y1="171.7" y2="171.7"/><text fill="#000000" font-family="sans-serif" font-size="13" font-weight="bold" lengthAdjust="spacing" textLength="95" x="1266.5" y="189.597">Petits effectifs</text><text fill="#000000" font-family="sans-serif" font-size="13" lengthAdjust="spacing" textLength="225" x="1266.5" y="207.303">HAVING taille_cohorte &gt;= 5 appliqu&#233; &#224;</text><text fill="#000000" font-family="sans-serif" font-size="13" lengthAdjust="spacing" textLength="244" x="1266.5" y="225.009">l'&#201;CRITURE : aucune cohorte de moins de</text><text fill="#000000" font-family="sans-serif" font-size="13" lengthAdjust="spacing" textLength="219" x="1266.5" y="242.715">5 patients n'est mat&#233;rialis&#233;e. La r&#232;gle</text><text fill="#000000" font-family="sans-serif" font-size="13" lengthAdjust="spacing" textLength="244" x="1266.5" y="260.4211">n'est donc pas contournable, m&#234;me avec</text><text fill="#000000" font-family="sans-serif" font-size="13" lengthAdjust="spacing" textLength="147" x="1266.5" y="278.1271">un acc&#232;s direct &#224; la table.</text></g><rect fill="#DDDDDD" height="67.2038" id="_legend" rx="7.5" ry="7.5" style="stroke:#000000;stroke-width:1.0;" width="378" x="1348" y="833.6699"/><ellipse cx="1358.5" cy="850.2378" fill="#000000" rx="2.5" ry="2.5" style="stroke:#000000;stroke-width:0.0;"/><text fill="#000000" font-family="sans-serif" font-size="14" lengthAdjust="spacing" textLength="304" x="1365" y="853.6358">= cl&#233; de tri (ORDER BY) = grain de l'indicateur</text><text fill="#000000" font-family="sans-serif" font-size="14" lengthAdjust="spacing" textLength="368" x="1353" y="872.7038">Toutes les tables : ReplacingMergeTree(_processed_at)</text><text fill="#000000" font-family="sans-serif" font-size="14" lengthAdjust="spacing" textLength="324" x="1353" y="891.7717">Un recalcul &#233;crase la ligne, il ne la duplique pas</text><!--SRC=[lLVDRXit4BxhAGRfGNBhg7OIfsdW673zanX87KEn2nGe853SqOekbzpmHt1G1EYrzpv0Zd7FVODzapv9PxYx-hLSdoh0i7OvGyvyyyqtL5118xosEeD_VlyJea48OaIlIk50cKn94J2wRP3QAc-DgMxhjUX5ZfsEnXnD1axbaz01-1fUaMLr2ndjunJqtWsEJmRmmyzRj90xeGolwEvyPtAwj36W1qr_wMmFBs60fHPIcVn7T3bUEiJUi7HMelUO3KNO8hyh0mwbq39gg6wb4vws5g1LRd0Rb0QJdhDOQlKXSjY-my7MCNSwfP2_KXBmw49f6_ZRnFfI1Q4Lkb-CaBBwmh6KpV8mUdIFuAkJ5wVFJb_0RnsA0KrGuIDaXHyIAaCoc2g9j0R0Q3JFGsafxPVmdZ0nURDM4A3qxfXWI6yUFqx_MXSjHgYNVSo83hYsqVbXG5Seaw2wEZFXwPDL0pHqA7rPDk0uhvlNfzgAyFmPlV-qa4aak0t1dD9XqrakwM4zNZgJW6KsB9srkAT3aHNAUsND_uhI6ZWBWQmi1X5lXajnoh0H8w7HXOT0T5zg3qh4eSRf7LLk8nZBZKk-j4ysBWOioisBn7QzaLZI4ZsSsLpjESG98Ewh5XzkejpPMCuI1TXN1zIptPdN_hVgO8LVcugMg1SKdRiUZB41OMH3i0NOyHr1fHqkdJ1oWb2h22A8f1XKFyZc8MqdMsBvud9idEZaQA298ndELCJpVhlVGHc9mxlVWw04f2tAXXqPFsSORqWgKnY-3sy5U5iKj3_wjHnBZ04omfzMkUVGaPRLLhOOENQ2cN6cV5161jzFfSaI8frF2x8tG3hJfVIrCYoH2wBdsiLMzKvFJv-Tx2ofNkbmIgGXFd2C4wjjhkR5PieFfIfsT-ua_eB7qd8GIcjkc8abDZPrJIsugRKNoTUuSO79zEP1r2EKT5oY7lVjpPrHRuxkBjQjHfEsE2Ji3-5jz-pywEtL-xDtvpGQ4wy8pe8cJsqr8nzjOanCX6jgsuSZQwQSi3KraTASSslbt0OCb4biI9BXcDwp5to8YgTZXavDiMRs56NB9bQ7H1jEkqdyWamB38vpvX4zuvduA4m04LcfJSrPweUwJD3RWwTxBxPI88RErLqq7Wk-OBG4dnCsKWfZofyI8odiFOUTdPsjLVOcX2dUyw6d0oG7l3ywEDGKd0aYf2gEk8gh8tdssNyCNkafklvOo30Zr3VKCKLhJVxhW_1UV_BODEOUUkBQMDbmOc6fYZPHU6sBTUszD-aUCrE4kSBolUhkjbxV95CYDvPKHhQvf6wd7TQw4FuxZBe7TebWIy7SzwaFRGW4FJw9NHhE3jgx8Kkk9W9Mdq5E1Dy4vKT93EmHJqNkgjjS123w-8YQWvy8G-5ah8CVOfUCKZ6oMDz5XEEU8KeNWfvITt7nkIVIpTEpGWVEXK4aHr7lI9TYpmjq7bzM5LMwtvanUu7NBY-pcjL7pPqRcTimU7rnt73xc8U6g_wcGxVh2L9MjzIVrHTgq2JzrzICjVGVHXdvrjsC6jDD4a-IGN3KjQWxcbj6-Cd82fTv5eUfJR0oNkpT8kLv6bwBb3s1M5_gMsMQeq_XNo19iWSSZr46DVPDy6yEVpexVxsgf0UlO0z4cQxg15NrcJ7jLdyS3SukhmOd5AFWHB3b5ejUKXpwGgPxSnqnNVHKJn4O4fx2z9Cb3LPNVScJmjKMQP2oz9701ggmuTyULDRgBng_B8UTf6JDHCmKwMlY45Ks_KnPg5vTDEZtrnN_Nm00]--></g></svg>